# Blender 3.6.0
# www.blender.org
mtllib lowpoly_novel(OBJ).mtl
o sideHustle_novel
v -0.052104 0.006207 -0.080493
v -0.052104 -0.011864 -0.096886
v -0.052104 0.006207 -0.096886
v -0.061761 0.006729 -0.090652
v -0.049841 0.008471 0.093076
v -0.052104 -0.011864 0.093076
v -0.049841 -0.014127 0.093076
v -0.063336 -0.010998 -0.090805
v -0.049841 0.008471 -0.096886
v -0.049841 -0.014127 -0.096886
v -0.052104 -0.011864 -0.080493
v -0.057227 0.006306 -0.088347
v -0.054065 -0.011862 -0.086091
v -0.054938 -0.002828 -0.088618
v -0.050594 -0.002828 -0.080493
v -0.061842 -0.002185 -0.092128
v -0.050594 -0.002828 0.093076
v -0.018763 0.008471 0.093076
v -0.014052 0.008471 0.082820
v -0.006470 0.008471 0.093076
v -0.015024 0.012063 0.092529
v -0.016793 0.011960 0.089820
v -0.052104 -0.011864 -0.096886
v -0.052104 0.006207 -0.096886
v -0.049841 0.008471 0.093076
v -0.052104 0.006207 0.093076
v -0.052104 -0.011864 0.093076
v -0.049841 -0.014127 0.093076
v -0.049841 0.008471 -0.096886
v -0.049841 -0.014127 -0.096886
v -0.050594 -0.002828 0.093076
v -0.049841 0.008471 0.080849
v -0.049569 0.008265 0.080121
v 0.033046 0.008471 0.093076
v 0.074562 0.008470 0.065589
v 0.074562 0.008471 0.065896
v 0.074562 -0.014127 0.065896
v 0.072214 -0.014127 -0.096792
v 0.074536 -0.014127 -0.094470
v 0.074536 0.008471 -0.094470
v 0.072214 0.008471 -0.096792
v 0.072097 -0.014127 -0.096886
v 0.074562 -0.014127 -0.094421
v 0.074562 0.008471 -0.094421
v 0.072097 0.008471 -0.096886
v 0.074562 0.006743 -0.002274
v 0.074551 0.006743 -0.002274
v -0.052099 -0.012365 -0.002274
v -0.050594 -0.003874 -0.002274
v 0.074551 -0.014491 -0.002274
v -0.049841 -0.014491 -0.002274
v 0.074562 -0.014491 -0.002274
v -0.049841 0.006743 -0.002274
v -0.052099 0.004616 -0.002274
v 0.076659 -0.002828 0.065896
v 0.073650 -0.002828 -0.096792
v 0.076634 -0.002828 -0.094470
v 0.076649 -0.003874 -0.002274
v -0.050696 -0.002828 -0.096886
v 0.072678 0.008471 0.093076
v 0.074562 0.008471 0.091224
v 0.074562 -0.014127 0.091224
v 0.072678 -0.014127 0.093076
v 0.074775 -0.002828 0.093076
v 0.076659 -0.002828 0.091224
v 0.074562 -0.014134 0.091286
v 0.072772 -0.014127 0.093076
v 0.070757 0.017509 0.091409
v 0.073497 0.017188 0.088767
v -0.014052 0.008471 0.082820
v 0.074562 0.008430 0.065589
v 0.033046 0.008431 0.093076
v -0.052104 0.006207 -0.080493
v -0.061744 0.006729 -0.090676
v -0.063318 -0.010998 -0.090829
v -0.052104 -0.011864 -0.080493
v -0.057210 0.006306 -0.088371
v -0.054047 -0.011862 -0.086115
v -0.054920 -0.002828 -0.088642
v -0.061824 -0.002185 -0.092152
v -0.052104 -0.011864 -0.096886
v -0.052104 0.006207 -0.096886
v -0.050696 -0.002828 -0.096886
v -0.050594 -0.002828 -0.080493
v 0.074562 0.008471 0.091286
v 0.072772 0.008471 0.093076
v 0.073497 0.017148 0.088767
v 0.070757 0.017469 0.091409
v -0.006470 0.008471 0.093076
v -0.018763 0.008471 0.093076
v -0.015024 0.012063 0.092529
v -0.016793 0.011960 0.089820
v -0.052104 0.006207 0.093076
v -0.052104 0.006207 0.093076
v -0.049841 0.008471 0.093076
v -0.006470 0.008471 0.093076
v -0.014052 0.008471 0.082820
v 0.033046 0.008431 0.093076
v 0.074562 0.008430 0.065589
v -0.052104 -0.011864 -0.080493
v -0.050594 -0.002828 -0.080493
v -0.052104 0.006207 -0.080493
vn -0.0006 1.0000 -0.0006
vn -0.0002 0.9998 0.0183
vn -0.3718 0.9281 -0.0178
vn -0.9515 0.3076 0.0002
vn -0.9990 -0.0441 0.0001
vn -0.9723 -0.0247 0.2325
vn -0.7530 0.1452 0.6418
vn -0.9378 -0.3257 0.1199
vn -0.3783 0.9256 0.0108
vn -0.7071 0.7071 -0.0000
vn -0.9319 0.3251 0.1609
vn -0.3777 -0.9259 -0.0001
vn -0.3829 -0.9238 -0.0023
vn -0.7071 -0.7071 -0.0000
vn -1.0000 0.0010 -0.0000
vn -0.9513 -0.3083 0.0010
vn -1.0000 -0.0014 0.0004
vn -0.6920 0.0017 0.7219
vn -0.6529 -0.1662 0.7390
vn -0.4505 0.0323 0.8922
vn -0.4284 0.2048 0.8801
vn 0.1178 0.9882 -0.0975
vn 0.3865 0.8769 -0.2857
vn 0.1180 0.9892 -0.0872
vn 1.0000 0.0012 -0.0005
vn 0.9020 -0.1675 0.3979
vn 0.9827 -0.1852 0.0009
vn -0.0000 -0.0000 1.0000
vn 0.3390 -0.0629 0.9387
vn -0.7069 0.7069 -0.0260
vn -0.0448 0.9957 -0.0812
vn 0.0005 -0.0000 -1.0000
vn 0.0007 -0.0000 -1.0000
vn 0.3269 -0.0511 -0.9437
vn 0.3766 -0.0000 -0.9264
vn 0.8901 0.1572 -0.4279
vn 0.9185 0.0008 -0.3955
vn 0.9822 0.1880 -0.0007
vn 1.0000 -0.0017 -0.0003
vn 0.0002 -1.0000 -0.0039
vn -0.0000 -1.0000 -0.0000
vn -0.9510 -0.3091 -0.0000
vn -0.0012 0.9998 -0.0195
vn -0.3762 -0.9265 0.0038
vn -0.3749 0.9271 -0.0000
vn 0.9822 -0.1880 0.0001
vn 0.8905 -0.1574 -0.4268
vn 0.3269 0.0511 -0.9437
vn 0.9827 0.1852 -0.0020
vn 0.9285 -0.0000 0.3714
vn 0.9020 0.1675 0.3979
vn 0.4154 -0.0000 0.9096
vn 0.3390 0.0629 0.9387
vn -0.0000 -1.0000 0.0038
vn -0.0753 0.9892 -0.1261
vn -0.2329 0.9067 -0.3517
vn -0.4591 -0.1411 0.8771
vn 0.0008 -0.0000 -1.0000
vn 0.0001 -1.0000 -0.0038
vn -0.0000 1.0000 -0.0000
vn 0.2329 -0.9067 0.3517
vn 0.8866 0.0480 -0.4601
vn 0.7543 -0.1450 -0.6403
vn 0.6930 -0.0015 -0.7210
vn 0.8476 0.1845 -0.4975
vn 0.6538 0.1664 -0.7381
vn 0.4505 -0.0323 -0.8922
vn 0.4591 0.1411 -0.8771
vn 0.4284 -0.2048 -0.8801
vn -1.0000 -0.0000 0.0030
vn -0.9872 0.1594 0.0031
vn -1.0000 -0.0000 0.0031
vn -0.0012 1.0000 -0.0016
vn -0.0010 1.0000 -0.0015
vn -0.9872 -0.1593 0.0030
vn -0.9872 -0.1594 0.0031
vn -0.3865 -0.8769 0.2857
vn 0.9065 -0.0897 -0.4126
vn -0.0015 1.0000 -0.0016
vt 0.997633 0.350806
vt 0.997504 0.687386
vt 0.988498 0.696381
vt 0.544074 0.046450
vt 0.531106 0.350320
vt 0.532479 0.001899
vt 0.161028 0.761791
vt 0.195331 0.738812
vt 0.194873 0.760803
vt 0.543197 0.696211
vt 0.531520 0.695982
vt 0.532690 0.636172
vt 0.455666 0.350260
vt 0.466729 0.635414
vt 0.455237 0.695116
vt 0.466888 0.695086
vt 0.499195 0.350291
vt 0.466348 0.002602
vt 0.499412 0.002288
vt 0.127594 0.756426
vt 0.162953 0.728597
vt 0.129679 0.721827
vt 0.161775 0.700630
vt 0.195331 0.700418
vt 0.284118 0.768265
vt 0.257744 0.795530
vt 0.237587 0.768265
vt 0.895753 0.743852
vt 0.988124 0.783392
vt 0.895738 0.783357
vt 0.300850 0.828889
vt 0.303599 0.787667
vt 0.750587 0.787667
vt 0.287669 0.747585
vt 0.275992 0.747543
vt 0.275992 0.700261
vt 0.846497 0.002318
vt 0.674438 0.039532
vt 0.702177 0.002111
vt 0.753534 0.874678
vt 0.756655 0.915900
vt 0.308238 0.874678
vt 0.298165 0.743623
vt 0.310765 0.704123
vt 0.310750 0.743628
vt 0.647080 0.704252
vt 0.647065 0.743757
vt 0.011110 0.695014
vt 0.002206 0.350404
vt 0.467351 0.350269
vt 0.657357 0.002144
vt 0.499709 0.635738
vt 0.455018 0.002678
vt 0.542919 0.350329
vt 0.647050 0.783262
vt 0.310735 0.783133
vt 0.298150 0.783128
vt 0.308238 0.957122
vt 0.302999 0.915900
vt 0.895769 0.704348
vt 0.988139 0.743888
vt 0.988154 0.704383
vt 0.997776 0.743891
vt 0.997760 0.783396
vt 0.758240 0.828889
vt 0.750587 0.870111
vt 0.001899 0.009612
vt 0.008413 0.003087
vt 0.997990 0.102886
vt 0.988249 0.002491
vt 0.998101 0.012367
vt 0.128318 0.702914
vt 0.269526 0.794746
vt 0.295342 0.795924
vt 0.761791 0.882935
vt 0.298181 0.704118
vt 0.002135 0.686036
vt 0.544164 0.001915
vt 0.761791 0.948866
vt 0.753534 0.957122
vt 0.997791 0.704387
vt 0.303599 0.870111
vt 0.295342 0.861854
vt 0.480787 0.683659
vt 0.508439 0.646255
vt 0.525618 0.683659
vt 0.003028 0.734315
vt 0.099196 0.704230
vt 0.154489 0.834597
vt 0.233834 0.700418
vt 0.268136 0.723398
vt 0.235758 0.733612
vt 0.200399 0.705783
vt 0.202484 0.740383
vt 0.234581 0.761580
vt 0.201123 0.759295
vt 0.268136 0.761791
vt 0.199199 0.825685
vt 0.165777 0.765909
vt 0.199199 0.765875
vt 0.009558 0.834596
vt 0.232622 0.765909
vt 0.232562 0.825718
vt 0.470847 0.651253
vt 0.086277 0.699006
vt 0.267678 0.701406
vt 0.165836 0.825718
vt 0.003028 0.828066
vt 0.478480 0.642248
s 1
usemtl sideHustle_novel
f 46/1/1 44/2/2 45/3/2
f 32/4/3 54/5/4 93/6/5
f 15/7/6 13/8/7 11/9/8
f 9/10/9 3/11/10 1/12/11
f 51/13/12 11/14/8 10/15/13
f 10/15/13 11/14/8 2/16/14
f 49/17/15 6/18/16 17/19/17
f 1/20/11 14/21/18 15/7/6
f 12/22/19 16/23/20 14/21/18
f 14/21/18 8/24/21 13/8/7
f 54/5/4 17/19/17 93/6/5
f 19/25/22 21/26/23 20/27/24
f 55/28/25 62/29/26 37/30/27
f 31/31/28 28/32/28 63/33/29
f 94/34/30 95/35/30 33/36/30
f 34/37/31 19/38/22 20/39/24
f 30/40/32 59/41/33 38/42/34
f 56/43/35 40/44/36 57/45/37
f 57/45/37 47/46/38 58/47/39
f 51/13/12 42/48/40 52/49/41
f 49/17/15 11/14/8 48/50/42
f 32/4/3 18/51/43 19/38/22
f 54/5/4 15/52/6 49/17/15
f 48/50/42 7/53/44 6/18/16
f 53/54/45 1/12/11 54/5/4
f 47/46/38 55/28/25 58/47/39
f 58/47/39 37/30/27 50/55/46
f 39/56/47 58/47/39 50/55/46
f 56/43/35 39/56/47 38/57/34
f 41/58/48 56/59/35 59/41/33
f 36/60/49 65/61/50 55/28/25
f 61/62/51 64/63/52 65/61/50
f 62/29/26 64/63/52 63/64/29
f 31/31/28 64/65/52 60/66/53
f 52/49/41 66/67/54 67/68/54
f 35/69/55 68/70/56 69/71/56
f 45/3/2 9/10/9 53/54/45
f 53/54/45 46/1/1 45/3/2
f 32/4/3 53/54/45 54/5/4
f 15/7/6 14/21/18 13/8/7
f 51/13/12 48/50/42 11/14/8
f 49/17/15 48/50/42 6/18/16
f 1/20/11 12/22/19 14/21/18
f 12/22/19 4/72/57 16/23/20
f 14/21/18 16/23/20 8/24/21
f 54/5/4 49/17/15 17/19/17
f 19/25/22 22/73/23 21/26/23
f 55/28/25 65/61/50 62/29/26
f 63/33/29 64/65/52 31/31/28
f 31/31/28 27/74/28 28/32/28
f 23/75/58 59/41/33 30/40/32
f 59/41/33 56/59/35 38/42/34
f 56/43/35 41/76/48 40/44/36
f 57/45/37 40/44/36 47/46/38
f 10/15/13 42/48/40 51/13/12
f 42/48/40 43/77/59 52/49/41
f 49/17/15 15/52/6 11/14/8
f 35/69/55 46/1/1 34/37/31
f 46/1/1 53/54/45 19/38/22
f 32/4/3 5/78/43 18/51/43
f 46/1/1 19/38/22 34/37/31
f 53/54/45 32/4/3 19/38/22
f 54/5/4 1/12/11 15/52/6
f 48/50/42 51/13/12 7/53/44
f 53/54/45 9/10/9 1/12/11
f 47/46/38 36/60/49 55/28/25
f 58/47/39 55/28/25 37/30/27
f 39/56/47 57/45/37 58/47/39
f 56/43/35 57/45/37 39/56/47
f 59/41/33 24/79/33 29/80/32
f 29/80/32 41/58/48 59/41/33
f 36/60/49 61/62/51 65/61/50
f 61/62/51 60/81/53 64/63/52
f 62/29/26 65/61/50 64/63/52
f 60/66/53 25/82/28 31/31/28
f 25/82/28 26/83/28 31/31/28
f 7/53/44 51/13/12 67/68/54
f 51/13/12 52/49/41 67/68/54
f 35/69/55 34/37/31 68/70/56
f 96/84/60 97/85/60 90/86/60
f 99/87/61 88/88/61 98/89/61
f 101/90/62 78/91/63 79/92/64
f 102/93/65 79/92/64 77/94/66
f 77/94/66 80/95/67 74/96/68
f 79/92/64 75/97/69 80/95/67
f 83/98/70 100/99/71 84/100/72
f 86/101/73 71/87/74 72/89/74
f 83/98/70 73/102/75 82/103/76
f 91/104/77 70/85/77 89/84/77
f 99/87/61 87/105/61 88/88/61
f 101/90/62 76/106/78 78/91/63
f 102/93/65 101/90/62 79/92/64
f 77/94/66 79/92/64 80/95/67
f 79/92/64 78/91/63 75/97/69
f 83/98/70 81/107/71 100/99/71
f 86/101/73 85/108/79 71/87/74
f 83/98/70 84/100/72 73/102/75
f 91/104/77 92/109/77 70/85/77
